<svg xmlns="http://www.w3.org/2000/svg" width="2036.372" height="2398.11" viewBox="0 0 2036.372 2398.11">
  <g id="Group_27" data-name="Group 27" transform="" opacity="0.2">
    <path id="Path_53" data-name="Path 53" d="M214.736,90.755c46.446,57.262,99.412,110.178,163.557,141.4,86.872,42.282,202.521,38.4,272.359-40.985C731.063,99.764,777.12,8.887,906.162-2.915c90.987-8.322,199.064,31.431,249.063,116.153,29.668,50.271,46.035,108.616,70.665,162.13,59.067,128.346,159.07,158.838,276.32,90.283,56-32.743,119.38-70.582,178.462-48.672,77.466,28.731,106.7,147.357,187.277,164.218,44.027,9.216,87.813-16.027,130.016-34.379,100.478-43.689,142.2,51.437,233.339,39.393,22.876-3.023,43.594-16.749,65.972-23.06,23.1-6.515,68.4.025,60.384,36.007" transform="translate(72.902)" fill="none" stroke="#00ffeb" stroke-linecap="round" stroke-linejoin="round" stroke-width="1.007" stroke-dasharray="0 2.015"/>
    <path id="Path_54" data-name="Path 54" d="M217.811,115.727C263.978,172.715,318.083,222.634,382.5,250.642c46.178,20.173,99.817,27.451,150.124,18.129,44.4-8.245,86.377-29.265,119.111-65.533C711.863,136.514,754.04,69.507,824.38,33.945,847.717,22.12,874.217,13.84,905.423,9.974,995.51-1.188,1101.841,33.13,1154.6,113.737c31.592,48.266,50.007,105.666,75.441,159.112q19.53,41.213,43.967,69.918c58.114,68.04,134.92,76.263,228.548,33.744,29.647-13.463,61.053-32.052,92.4-45.77,40.7-17.78,83.7-24.5,124.183-9.7,73.113,27.055,102.527,136.6,178.685,153.481,41.542,9.188,82.921-12.888,122.786-29.069,94.41-38.32,135.228,48.445,220.981,36.448,21.572-3.029,41.175-15.9,62.287-22.162,21.8-6.473,63.768-1.219,57.262,30.635" transform="translate(74.019 4.327)" fill="none" stroke="#00ffeb" stroke-linecap="round" stroke-linejoin="round" stroke-width="1.007" stroke-dasharray="0 2.015"/>
    <path id="Path_55" data-name="Path 55" d="M220.888,140.8C266.777,197.517,322.016,244.44,386.7,269.237c46.185,17.87,99.16,22.993,148.545,12.371,43.643-9.423,84.823-30.843,117.571-66.189C712.631,150.673,755.953,85.075,825.174,48.7c23.07-12.168,49.144-20.942,79.51-25.724,89.2-14.048,193.808,14.874,249.293,91.374,33.544,46.253,53.977,102.712,80.216,156.09,13.222,27.1,27.881,50.57,43.942,70.121,56.945,68.88,131.009,80.358,224.769,46.921,35.517-12.664,72.327-34.856,109.015-51.475,47.222-21.337,98.345-28.1,145.7-10.794,68.835,25.158,98.359,125.843,170.094,142.75,39.057,9.164,78.022-9.749,115.556-23.755,88.327-32.964,128.256,45.455,208.629,33.5,20.266-3.036,38.752-15.052,58.589-21.264,20.5-6.43,59.141-2.466,54.141,25.262" transform="translate(75.136 8.548)" fill="none" stroke="#00ffeb" stroke-linecap="round" stroke-linejoin="round" stroke-width="1.007" stroke-dasharray="0 2.015"/>
    <path id="Path_56" data-name="Path 56" d="M223.963,166C269.574,222.444,326,266.23,390.9,287.953c46.223,15.473,98.5,18.538,146.963,6.615a237.334,237.334,0,0,0,116.031-66.85C713.4,164.961,757.865,100.76,825.967,63.568a263.9,263.9,0,0,1,77.975-27.477c88.314-16.986,191.254,6.577,249.407,78.987,35.527,44.235,57.948,99.76,84.994,153.072,13.432,26.726,28,50.349,43.915,70.329,55.629,69.832,128.03,86.018,220.992,60.1,41.67-11.617,83.6-37.661,125.628-57.178,53.74-24.9,112.949-31.615,167.2-11.891,64.5,23.445,94.188,115.089,161.5,132.015,36.572,9.133,73.116-6.618,108.327-18.448,82.219-27.621,121.285,42.465,196.27,30.554,18.961-3.041,36.335-14.2,54.9-20.364,19.2-6.385,54.522-3.709,51.025,19.887" transform="translate(76.252 12.644)" fill="none" stroke="#00ffeb" stroke-linecap="round" stroke-linejoin="round" stroke-width="1.007" stroke-dasharray="0 2.015"/>
    <path id="Path_57" data-name="Path 57" d="M227.04,191.348c45.333,56.166,102.894,96.927,168.066,115.465,46.228,13.152,97.843,14.085,145.382.859a255.329,255.329,0,0,0,114.5-67.508c59.19-60.774,104.8-123.574,171.785-161.576a277.44,277.44,0,0,1,76.441-29.232c87.435-19.978,188.75-1.743,249.524,66.6,37.535,42.206,62.04,96.743,89.771,150.046,13.693,26.319,28.15,50.094,43.891,70.53,54.435,70.684,125.52,92.825,217.214,73.274,47.994-10.231,94.869-40.465,142.242-62.881,60.26-28.457,127.55-35.118,188.711-12.986,60.149,21.765,90.021,104.333,152.912,121.28,34.088,9.112,68.194-3.491,101.1-13.135,76.082-22.3,114.312,39.476,183.914,27.607,17.657-3.046,33.916-13.358,51.2-19.465,17.9-6.346,49.888-4.957,47.9,14.511" transform="translate(77.37 16.599)" fill="none" stroke="#00ffeb" stroke-linecap="round" stroke-linejoin="round" stroke-width="1.007" stroke-dasharray="0 2.015"/>
    <path id="Path_58" data-name="Path 58" d="M230.115,216.85c45.053,55.886,103.748,93.642,169.189,108.985a273.951,273.951,0,0,0,256.753-73.068c58.876-58.79,105.637-120.188,171.5-159.005a294.069,294.069,0,0,1,74.906-30.985c86.555-23.036,186.29-10.087,249.638,54.21,39.57,40.161,66.019,93.787,94.548,147.021,13.9,25.945,28.3,49.84,43.863,70.743,53.251,71.527,123.213,100.445,213.434,86.448,54.417-8.441,106.15-43.27,158.854-68.584,66.779-32.014,142.15-38.611,210.224-14.082,55.789,20.1,85.85,93.578,144.318,110.544,31.6,9.086,63.261-.38,93.867-7.828,69.918-17.012,107.343,36.488,171.559,24.663,16.357-3.053,31.5-12.506,47.511-18.565,16.6-6.3,45.254-6.2,44.783,9.133" transform="translate(78.486 20.394)" fill="none" stroke="#00ffeb" stroke-linecap="round" stroke-linejoin="round" stroke-width="1.007" stroke-dasharray="0 2.015"/>
    <path id="Path_59" data-name="Path 59" d="M233.191,242.526c44.774,55.613,104.6,90.371,170.312,102.5a283.044,283.044,0,0,0,142.221-10.659,304.191,304.191,0,0,0,111.411-68.824C715.7,208.738,763.6,148.74,828.348,109.11A313.87,313.87,0,0,1,901.72,76.372c85.651-26.145,183.869-18.472,249.754,41.819,41.628,38.095,69.986,90.833,99.322,144,14.106,25.567,28.466,49.58,43.839,70.941,52.08,72.361,121.011,89.876,209.657,99.625,60.825,6.689,117.424-46.072,175.468-74.287,73.3-35.576,156.739-42.086,231.732-15.176,51.426,18.453,81.679,82.822,135.727,99.812,29.118,9.062,58.316,2.718,86.638-2.513,63.716-11.771,100.369,33.5,159.206,21.712,15.05-3.056,29.078-11.657,43.82-17.667,15.293-6.261,40.629-7.446,41.662,3.763" transform="translate(79.603 24.017)" fill="none" stroke="#00ffeb" stroke-linecap="round" stroke-linejoin="round" stroke-width="1.007" stroke-dasharray="0 2.015"/>
    <path id="Path_60" data-name="Path 60" d="M236.264,268.385c44.5,55.34,105.445,87.1,171.441,96.017a290.042,290.042,0,0,0,140.639-16.418A338.585,338.585,0,0,0,658.215,278.5c58.249-54.824,107.3-113.418,170.928-153.863a338.347,338.347,0,0,1,71.833-34.486c84.731-29.321,181.481-26.895,249.869,29.431,43.712,36,73.948,87.884,104.1,140.982,14.305,25.194,28.624,49.316,43.812,71.145,50.919,73.188,119.211,101.447,205.878,112.8,66.838,8.755,128.7-48.879,192.082-79.993,79.814-39.131,171.323-45.543,253.239-16.271,47.058,16.815,77.511,72.068,127.137,89.076,26.633,9.037,53.35,5.788,79.407,2.8,57.483-6.6,93.4,30.508,146.848,18.768,13.742-3.063,26.657-10.806,40.125-16.766,13.995-6.217,36-8.691,38.543-1.611" transform="translate(80.718 27.455)" fill="none" stroke="#00ffeb" stroke-linecap="round" stroke-linejoin="round" stroke-width="1.007" stroke-dasharray="0 2.015"/>
    <path id="Path_61" data-name="Path 61" d="M239.342,294.441c44.218,55.068,106.294,83.858,172.564,89.536A298.024,298.024,0,0,0,550.966,361.8c39.1-16.5,75.493-40.326,108.329-70.141,57.938-52.84,108.13-110.036,170.641-151.3a368.882,368.882,0,0,1,70.3-36.244c83.785-32.562,179.126-35.361,249.986,17.038,45.813,33.879,77.8,85,108.877,137.958,14.448,24.853,28.836,49.024,43.787,71.35,49.913,73.911,116.94,113.9,202.1,125.978,72.964,10.344,139.976-51.683,208.7-85.694,86.331-42.693,185.9-48.974,274.749-17.368,42.691,15.185,73.343,61.312,118.546,78.342,24.149,9.013,48.375,8.814,72.178,8.106,51.221-1.523,86.427,27.519,134.491,15.824,12.438-3.072,24.238-9.961,36.433-15.872,12.692-6.175,31.37-9.935,35.422-6.984" transform="translate(81.836 30.695)" fill="none" stroke="#00ffeb" stroke-linecap="round" stroke-linejoin="round" stroke-width="1.007" stroke-dasharray="0 2.015"/>
    <path id="Path_62" data-name="Path 62" d="M242.419,320.689c43.94,54.8,107.137,80.742,173.691,83.05,46.226,1.772,94.557-8.189,137.479-27.935,38.346-17.682,73.941-41.9,106.792-70.8C718,254.149,769.341,198.358,830.732,156.286a407.012,407.012,0,0,1,68.769-38c82.8-35.87,176.789-43.878,250.1,4.653,47.928,31.723,81.77,82.047,113.652,134.943,14.658,24.479,29,48.765,43.763,71.554,48.743,74.749,114.188,126.993,198.318,139.155,79.212,11.45,151.254-54.488,225.314-91.4A381.326,381.326,0,0,1,2026.9,358.725c38.316,13.558,69.172,50.557,109.953,67.608,21.665,8.988,43.4,11.778,64.947,13.417,44.952,3.42,79.454,24.535,122.13,12.878,11.132-3.078,21.819-9.112,32.738-14.971a153.242,153.242,0,0,1,32.3-12.359" transform="translate(82.953 33.746)" fill="none" stroke="#00ffeb" stroke-linecap="round" stroke-linejoin="round" stroke-width="1.007" stroke-dasharray="0 2.015"/>
    <path id="Path_63" data-name="Path 63" d="M245.493,347.129c43.663,54.523,108,77.471,174.82,76.57,46.231-.533,93.9-12.645,135.9-33.694,37.585-18.862,72.379-43.482,105.249-71.456,57.311-48.878,109.8-103.266,170.068-146.15a456.082,456.082,0,0,1,67.234-39.752c81.767-39.238,174.454-52.443,250.215-7.737,50.048,29.536,85.737,79.1,118.428,131.917,14.857,24.1,29.156,48.509,43.735,71.758,47.571,75.589,110.459,144.918,194.541,152.329,86.082,7.59,162.526-57.291,241.925-97.1,99.367-49.812,214.941-55.538,317.769-19.563,33.921,11.995,65,39.8,101.362,56.877a263.2,263.2,0,0,0,57.718,18.727c38.738,8.187,72.484,21.536,109.778,9.93,9.83-3.082,19.4-8.263,29.047-14.072,10.087-6.087,22.116-12.427,29.183-17.733" transform="translate(84.069 36.602)" fill="none" stroke="#00ffeb" stroke-linecap="round" stroke-linejoin="round" stroke-width="1.007" stroke-dasharray="0 2.015"/>
    <path id="Path_64" data-name="Path 64" d="M248.57,373.759c73.282,91.632,209.587,85.416,310.258,30.635S739.041,257.608,832.318,188.7,1047.9,74.49,1148.35,127.069c75.65,39.6,120.517,124.429,166.914,200.857s107.273,154.405,190.762,165.506c92.019,12.236,173.8-60.1,258.539-102.8,105.885-53.368,229.524-58.984,339.277-20.656,91.241,31.864,198.634,143.667,292.1,40.881" transform="translate(85.186 39.271)" fill="none" stroke="#00ffeb" stroke-linecap="round" stroke-linejoin="round" stroke-width="1.007" stroke-dasharray="0 2.015"/>
    <path id="Path_65" data-name="Path 65" d="M250.686,383.518c82.09,96.58,229.259,89.553,337.057,27.4,96.249-55.5,173.495-144.294,264.592-209.9C946.166,133.445,1067.5,96.47,1165.407,151.88c74.381,42.48,120.651,125,171.2,192,50.045,66.321,109.529,131.754,190.5,136.587,88.757,5.3,168.941-65.521,252.934-105.667,103.32-49.382,222.353-51.321,328.4-13.159,88.763,32.043,204.559,147.648,292.1,39.305" transform="translate(85.955 46.824)" fill="none" stroke="#00ffeb" stroke-linecap="round" stroke-linejoin="round" stroke-width="1.007" stroke-dasharray="0 2.015"/>
    <path id="Path_66" data-name="Path 66" d="M252.8,393.463c90.9,101.528,248.97,93.888,363.853,24.158,92-55.835,166.813-141.759,255.7-204.1,94.409-66.214,214.947-95.226,310.112-36.643,73.277,45.116,120.507,125.4,175.5,183.153C1411.372,416.12,1469.707,469.165,1548.2,467.7c85.448-1.6,164.057-70.976,247.333-108.537,100.717-45.428,215.177-43.658,317.524-5.661,86.282,32.223,210.482,151.626,292.111,37.728" transform="translate(86.723 54.191)" fill="none" stroke="#00ffeb" stroke-linecap="round" stroke-linejoin="round" stroke-width="1.007" stroke-dasharray="0 2.015"/>
    <path id="Path_67" data-name="Path 67" d="M254.918,403.535c99.711,106.473,268.755,98.425,390.654,20.918,87.888-55.886,160.16-139.2,246.8-198.313,95.006-64.826,214.609-85.667,307.149-24.149,72.081,47.916,119.995,125.695,179.788,174.3,56.4,45.841,113.921,86.567,189.969,78.752,82.1-8.439,159.153-76.453,241.733-111.4,98.086-41.518,208-35.994,306.646,1.835,83.806,32.405,216.4,155.606,292.119,36.151" transform="translate(87.491 61.433)" fill="none" stroke="#00ffeb" stroke-linecap="round" stroke-linejoin="round" stroke-width="1.007" stroke-dasharray="0 2.015"/>
    <path id="Path_68" data-name="Path 68" d="M257.034,413.758C365.557,525.179,545.679,516.942,674.48,431.437c83.91-55.7,153.546-136.6,237.909-192.52,95.645-63.4,214.252-76.059,304.189-11.657,70.871,50.755,119.055,126.057,184.084,165.447,58.966,35.72,116.073,64.064,189.706,49.835,78.729-15.21,154.229-81.961,236.126-114.268,95.433-37.648,200.83-28.331,295.773,9.336,81.331,32.584,222.325,159.586,292.124,34.574" transform="translate(88.259 68.52)" fill="none" stroke="#00ffeb" stroke-linecap="round" stroke-linejoin="round" stroke-width="1.007" stroke-dasharray="0 2.015"/>
    <path id="Path_69" data-name="Path 69" d="M259.151,424.137c117.331,116.369,308.67,108.173,444.243,14.448,80.042-55.34,146.956-133.955,229.012-186.727,96.306-61.942,213.873-66.425,301.229.837,69.644,53.622,117.721,126.683,188.375,156.6,61.158,25.89,118.217,41.62,189.44,20.915,75.349-21.9,149.281-87.509,230.525-117.133,92.754-33.828,193.656-20.668,284.894,16.832,78.855,32.765,228.249,163.568,292.132,33" transform="translate(89.028 75.449)" fill="none" stroke="#00ffeb" stroke-linecap="round" stroke-linejoin="round" stroke-width="1.007" stroke-dasharray="0 2.015"/>
    <path id="Path_70" data-name="Path 70" d="M261.267,434.682c126.141,121.313,328.861,113.407,471.039,11.2,76.274-54.827,140.4-131.263,220.117-180.934,97-60.433,213.465-56.746,298.27,13.331,68.393,56.518,116.133,127.774,192.668,147.744,63.119,16.473,120.372,19.256,189.175-8,71.977-28.518,144.316-93.1,224.92-120,90.05-30.058,186.561-13.184,274.018,24.331,76.446,32.79,234.174,167.544,292.136,31.424" transform="translate(89.796 82.221)" fill="none" stroke="#00ffeb" stroke-linecap="round" stroke-linejoin="round" stroke-width="1.007" stroke-dasharray="0 2.015"/>
    <path id="Path_71" data-name="Path 71" d="M263.383,445.373c134.951,126.265,349.252,118.893,497.836,7.967,72.6-54.2,133.865-128.537,211.223-175.143,97.732-58.873,213.031-47.039,295.309,25.825,67.123,59.439,114.489,129.406,196.963,138.9,65.051,7.482,122.558-3.036,188.912-36.923,68.645-35.057,139.335-98.732,219.317-122.864,87.324-26.345,179.379-5.514,263.141,31.828,73.968,32.975,240.1,171.521,292.144,29.851" transform="translate(90.564 88.841)" fill="none" stroke="#00ffeb" stroke-linecap="round" stroke-linejoin="round" stroke-width="1.007" stroke-dasharray="0 2.015"/>
    <path id="Path_72" data-name="Path 72" d="M265.5,456.206c143.764,131.215,369.877,124.662,524.632,4.727,69.008-53.477,127.355-125.766,202.329-169.35,98.487-57.255,212.562-37.3,292.349,38.318,65.822,62.387,113.226,123.657,201.251,130.036,66.955,4.855,124.8-25.268,188.648-65.836,65.362-41.534,134.335-104.43,213.719-125.732,84.585-22.7,172.136,2.317,252.264,39.327,71.424,33.306,246.018,175.5,292.151,28.27" transform="translate(91.333 95.32)" fill="none" stroke="#00ffeb" stroke-linecap="round" stroke-linejoin="round" stroke-width="1.007" stroke-dasharray="0 2.015"/>
    <path id="Path_73" data-name="Path 73" d="M267.615,474.72c152.572,136.162,390.773,130.733,551.431,1.486,65.49-52.684,120.87-122.948,193.428-163.555,99.286-55.567,212.065-27.541,289.392,50.811,64.495,65.355,111.815,134.085,205.543,121.187,69.44-9.555,127.1-47.461,188.382-94.76,62.147-47.98,129.326-110.194,208.114-128.6,81.837-19.114,164.962,9.984,241.389,46.824,68.946,33.485,251.94,179.481,292.155,26.693" transform="translate(92.101 94.122)" fill="none" stroke="#00ffeb" stroke-linecap="round" stroke-linejoin="round" stroke-width="1.007" stroke-dasharray="0 2.015"/>
    <path id="Path_74" data-name="Path 74" d="M269.731,493.676c161.387,141.108,411.982,137.124,578.228-1.75,62.049-51.837,114.4-120.078,184.534-157.765,100.117-53.8,211.384-17.623,286.431,63.307,63.013,68.454,110.953,136.83,209.834,112.334,72.031-17.844,129.483-69.625,188.118-123.68,59-54.392,124.311-116.035,202.512-131.463,79.083-15.6,157.79,17.649,230.512,54.324,66.467,33.668,257.862,183.459,292.163,25.117" transform="translate(92.869 92.476)" fill="none" stroke="#00ffeb" stroke-linecap="round" stroke-linejoin="round" stroke-width="1.007" stroke-dasharray="0 2.015"/>
    <path id="Path_75" data-name="Path 75" d="M271.847,512.764c170.192,146.058,433.556,143.885,605.024-4.99,58.68-50.946,107.955-117.162,175.64-151.969,100.989-51.931,210.965-7.964,283.469,75.8,61.747,71.341,110.408,139.657,214.129,103.484,74.87-26.114,131.925-91.786,187.852-152.6s119.3-121.963,196.912-134.327c76.332-12.16,150.618,25.312,219.633,61.818,63.993,33.849,263.784,187.44,292.168,23.541" transform="translate(93.637 90.701)" fill="none" stroke="#00ffeb" stroke-linecap="round" stroke-linejoin="round" stroke-width="1.007" stroke-dasharray="0 2.015"/>
    <path id="Path_76" data-name="Path 76" d="M248.4,488.333c98.318,83.283,231.3,121.138,355.375,103.775,94.424-13.222,186.343-50.669,261.63-103.155,18.095-12.617,35.351-26.111,52.29-39.41,39.12-30.717,76.133-61.456,121.977-78.612a195.962,195.962,0,0,1,41.5-10.665c86.407-12.131,177.324,31.545,243.386,98,17.134,17.128,33.552,33.732,50.114,48.4,46.738,41.4,95.326,66.992,171.257,39.361,52.092-19.124,96.315-56.071,137.581-97.272,18.573-18.546,36.556-37.953,54.405-57,57.206-61.075,120.9-123.031,197.539-140.612a220.54,220.54,0,0,1,62.967-4.617c34.348,2.171,68.153,11.27,101.685,23.871a541.295,541.295,0,0,1,55.2,24.823c27.455,14.014,74.168,48,121.994,73.355,73.081,38.74,152.025,60.084,174.672-33.192" transform="translate(85.125 90.761)" fill="none" stroke="#00ffeb" stroke-linecap="round" stroke-linejoin="round" stroke-width="1.021" stroke-dasharray="0 2.042"/>
    <path id="Path_77" data-name="Path 77" d="M224.954,464.388c99.231,82.964,237.263,123.564,361.66,102.147C683,549.941,776.534,511.94,853.945,470.611c18.429-9.837,36.046-20.015,53.214-29.758,39.342-22.334,75.192-44.3,119.677-54.313a201.118,201.118,0,0,1,40.277-5.024c84.63-1.666,176.108,43.249,246.033,103.9,18.156,15.75,35.838,30.549,53.493,43.525,49.353,36.279,100.068,57.209,175.125,28.519,52.594-20.105,97.831-57.3,140.2-98.641,19.075-18.611,37.574-38.088,55.921-57.3,58.488-61.338,122.434-124.311,198.169-146.9a243.749,243.749,0,0,1,61.958-9.641c34-1.135,67.566,3.983,101.472,13.6a336.33,336.33,0,0,1,56.646,22.372c29.416,14.526,75.759,50.042,122.23,76.877,71.906,41.513,150.714,67.881,178.935-20.083" transform="translate(76.612 90.337)" fill="none" stroke="#00ffeb" stroke-linecap="round" stroke-linejoin="round" stroke-width="1.035" stroke-dasharray="0 2.07"/>
    <path id="Path_78" data-name="Path 78" d="M201.509,441.214c100.137,82.652,243.226,125.917,367.945,100.519,98.342-20.025,193.308-58.55,273.022-88.686,18.718-7.076,36.649-13.9,54.14-20.111,39.353-13.952,74.206-27.147,117.378-30.011a225.467,225.467,0,0,1,39.048.615c82.919,8.871,175.038,54.835,248.681,109.8,19.219,14.339,38.1,27.374,56.871,38.651,51.9,31.179,104.766,47.291,178.991,17.673,53.068-21.175,99.347-58.535,142.815-100.008,19.579-18.674,38.592-38.22,57.44-57.609,59.765-61.594,123.994-125.437,198.8-153.18a279.379,279.379,0,0,1,60.948-14.668,309.625,309.625,0,0,1,101.255,3.337,243.356,243.356,0,0,1,58.088,19.927c31.39,15.02,77.346,52.1,122.466,80.381,70.725,44.325,149.4,75.681,183.2-6.973" transform="translate(68.1 89.142)" fill="none" stroke="#00ffeb" stroke-linecap="round" stroke-linejoin="round" stroke-width="1.049" stroke-dasharray="0 2.098"/>
    <path id="Path_79" data-name="Path 79" d="M178.064,418.946c101.051,82.339,249.186,128.2,374.229,98.893,100.3-23.509,196.526-62.629,278.725-81.454,18.964-4.341,37.145-7.849,55.06-10.459,39.14-5.7,73.188-10.035,115.083-5.711a288.456,288.456,0,0,1,37.814,6.255c81.239,19.492,173.987,66.4,251.33,115.7a578.149,578.149,0,0,0,60.247,33.774c54.4,26.123,109.454,37.349,182.859,6.83C1586.948,560.51,1634.278,523,1678.85,481.4c20.078-18.739,39.611-38.352,58.954-57.911,61.043-61.859,125.552-126.539,199.43-159.463a331.528,331.528,0,0,1,59.939-19.694c33.338-7.813,66.509-10.734,101.04-6.928,20.364,2.242,40.232,8.511,59.532,17.476,33.368,15.5,78.921,54.193,122.7,83.9,69.529,47.173,148.093,83.479,187.464,6.134" transform="translate(59.588 87.04)" fill="none" stroke="#00ffeb" stroke-linecap="round" stroke-linejoin="round" stroke-width="1.063" stroke-dasharray="0 2.126"/>
    <path id="Path_80" data-name="Path 80" d="M154.615,397.423c101.957,82.025,255.133,130.425,380.514,97.268,102.25-27.039,199.628-66.9,284.424-74.22a382.618,382.618,0,0,1,55.982-.811c38.783,2.3,72.154,7.014,112.785,18.587,11.859,3.376,24.11,7.156,36.59,11.9,79.566,30.219,172.973,77.939,253.98,121.585a504.326,504.326,0,0,0,63.624,28.9c56.853,21.128,114.139,27.4,186.727-4.01,54-23.36,102.377-61,148.049-102.741,20.583-18.81,40.631-38.489,60.472-58.218,62.323-62.119,127.129-127.611,200.057-165.749a409.1,409.1,0,0,1,58.931-24.723c33.01-11.177,66.013-18.171,100.827-17.194,20.935.587,41.261,6.126,60.971,15.029,35.354,15.97,80.485,56.3,122.933,87.411,68.314,50.06,146.784,91.279,191.73,19.242" transform="translate(51.075 84.193)" fill="none" stroke="#00ffeb" stroke-linecap="round" stroke-linejoin="round" stroke-width="1.077" stroke-dasharray="0 2.153"/>
    <path id="Path_81" data-name="Path 81" d="M131.17,376.33c102.869,81.709,261.062,132.587,386.8,95.639,104.187-30.616,202.7-71.4,290.124-66.988A279,279,0,0,1,865,413.823c38.448,10.019,71.133,24.01,110.489,42.889,11.39,5.462,23.254,11.157,35.361,17.534,77.853,41.028,171.957,89.448,256.625,127.489a456.492,456.492,0,0,0,67,24.024c59.285,16.185,118.813,17.408,190.594-14.859,54.454-24.475,103.893-62.236,150.669-104.108,21.084-18.869,41.65-38.62,61.99-58.523,63.6-62.378,128.711-128.664,200.682-172.031a527.843,527.843,0,0,1,57.93-29.746c32.673-14.575,65.517-25.665,100.612-27.46,21.512-1.1,42.293,3.731,62.413,12.58,37.348,16.428,82.035,58.436,123.171,90.924,67.076,52.974,145.473,99.077,195.992,32.351" transform="translate(42.563 80.917)" fill="none" stroke="#00ffeb" stroke-linecap="round" stroke-linejoin="round" stroke-width="1.091" stroke-dasharray="0 2.181"/>
    <path id="Path_82" data-name="Path 82" d="M107.723,355.415C211.5,436.811,374.7,490.117,500.8,449.43c106.108-34.237,205.832-76.109,295.823-59.753a240.239,240.239,0,0,1,57.828,18.491c38.257,17.552,70.147,40.963,108.189,67.185,10.936,7.54,22.392,15.167,34.131,23.172,76.082,51.907,170.961,100.923,259.278,133.385a425.755,425.755,0,0,0,70.379,19.146c61.711,11.307,123.474,7.408,194.46-25.7,54.9-25.6,105.41-63.47,153.289-105.474,21.584-18.934,42.664-38.753,63.5-58.827,64.882-62.642,130.309-129.693,201.312-178.316,18.977-13,38.058-24.282,56.916-34.773,32.324-17.986,65.018-33.208,100.4-37.728,22.082-2.82,43.329,1.332,63.858,10.133,39.34,16.869,83.565,60.583,123.4,94.434,65.81,55.924,144.162,106.879,200.257,45.462" transform="translate(34.05 77.465)" fill="none" stroke="#00ffeb" stroke-linecap="round" stroke-linejoin="round" stroke-width="1.104" stroke-dasharray="0 2.209"/>
    <path id="Path_83" data-name="Path 83" d="M84.275,334.605c104.69,81.082,272.87,136.771,399.365,92.388,108.01-37.893,209.086-80.986,301.523-52.52a230.57,230.57,0,0,1,58.748,28.143c38.25,25.019,69.211,57.9,105.891,91.485,10.5,9.612,21.52,19.185,32.906,28.819,74.239,62.824,169.967,112.371,261.924,139.283a407.932,407.932,0,0,0,73.757,14.271c64.147,6.481,128.128-2.613,198.326-36.541,55.34-26.753,106.924-64.706,155.9-106.842,22.082-19,43.689-38.885,65.018-59.134,66.163-62.9,131.925-130.7,201.942-184.6,18.626-14.337,37.362-27.378,55.906-39.8,31.963-21.408,64.488-40.791,100.185-47.991,22.642-4.569,44.368-1.074,65.3,7.685,41.342,17.3,85.08,62.747,123.638,97.946,64.517,58.9,142.849,114.68,204.522,58.572" transform="translate(25.537 73.903)" fill="none" stroke="#00ffeb" stroke-linecap="round" stroke-linejoin="round" stroke-width="1.118" stroke-dasharray="0 2.237"/>
    <path id="Path_84" data-name="Path 84" d="M60.83,313.876c105.6,80.767,278.746,138.8,405.648,90.76,109.9-41.6,212.489-85.962,307.219-45.286,20.167,8.657,39.829,20.991,59.676,37.792,38.393,32.5,68.311,74.832,103.593,115.787q15.1,17.526,31.674,34.457c72.33,73.75,168.971,123.791,264.571,145.181a399.491,399.491,0,0,0,77.136,9.394c66.6,1.7,132.773-12.648,202.194-47.384,55.779-27.91,108.439-65.937,158.524-108.209,22.587-19.065,44.708-39.018,66.536-59.439,67.44-63.16,133.562-131.7,202.57-190.881,18.281-15.675,36.653-30.478,54.9-44.828,31.582-24.838,63.937-48.409,99.966-58.259,23.183-6.336,45.406-3.484,66.742,5.237,43.345,17.72,86.579,64.928,123.875,101.462,63.188,61.9,141.541,122.478,208.785,71.681" transform="translate(17.025 70.264)" fill="none" stroke="#00ffeb" stroke-linecap="round" stroke-linejoin="round" stroke-width="1.132" stroke-dasharray="0 2.265"/>
    <path id="Path_85" data-name="Path 85" d="M37.383,293.2c106.51,80.453,284.495,140.558,411.933,89.132,111.673-45.536,216.036-90.975,312.92-38.051,20.483,11.191,40.566,26.689,60.6,47.443,38.641,40.029,67.538,91.722,101.295,140.086,9.678,13.74,19.743,27.218,30.447,40.1,70.364,84.673,167.987,135.055,267.223,151.079a400.615,400.615,0,0,0,80.509,4.517c69.086-3.042,137.363-22.789,206.063-58.227,56.166-29.159,109.957-67.17,161.141-109.575,23.092-19.128,45.729-39.153,68.055-59.743,68.722-63.425,135.292-132.626,203.2-197.167q26.938-25.488,53.889-49.851c31.139-28.327,63.356-56.051,99.753-68.525,23.7-8.125,46.457-5.929,68.184,2.789,45.379,18.063,88.054,67.117,124.108,104.972,61.829,64.921,140.231,130.278,213.047,84.791" transform="translate(8.512 66.569)" fill="none" stroke="#00ffeb" stroke-linecap="round" stroke-linejoin="round" stroke-width="1.146" stroke-dasharray="0 2.292"/>
    <path id="Path_86" data-name="Path 86" d="M13.938,272.56c107.419,80.14,290.407,142.752,418.215,87.509C569.663,300.63,696.2,244.432,812.3,386.343c50.045,61.177,81.4,144.666,128.214,210.123,86.827,121.419,222.452,170.852,353.76,156.617s258.7-86.463,373.688-180.012,219.532-208.434,326.28-318.378c30.785-31.7,62.748-63.707,99.538-78.793,75.992-31.162,142.86,51.348,193.964,108.828,60.431,67.961,138.919,138.078,217.313,97.9" transform="translate(0 62.839)" fill="none" stroke="#00ffeb" stroke-linecap="round" stroke-linejoin="round" stroke-width="1.16" stroke-dasharray="0 2.32"/>
  </g>
</svg>
