<svg xmlns="http://www.w3.org/2000/svg" viewBox="0 0 1792.453 1234.978"><g data-name="Group 714" fill="none" stroke="#00ffeb" stroke-linecap="round" stroke-dasharray="0.75 6"><path data-name="Path 293" d="M-.04208 10.186408l551.322469 1197.551623" stroke-width=".99961"/><path data-name="Path 297" d="M212.95792 10.186408l551.322469 1197.551623" stroke-width=".99961"/><path data-name="Path 301" d="M423.95792 10.186408l551.322469 1197.551623" stroke-width=".99961"/><path data-name="Path 305" d="M635.95792 10.186408l551.322469 1197.551623" stroke-width=".99961"/><path data-name="Path 309" d="M848.95792 10.186408l551.322469 1197.551623" stroke-width=".99961"/><path data-name="Path 294" d="M52.95792 10.186408l551.322469 1197.551623" stroke-width=".99961"/><path data-name="Path 298" d="M265.95792 10.186408l551.322469 1197.551623" stroke-width=".99961"/><path data-name="Path 302" d="M476.95792 10.186408l551.322469 1197.551623" stroke-width=".99961"/><path data-name="Path 306" d="M688.95792 10.186408l551.322469 1197.551623" stroke-width=".99961"/><path data-name="Path 310" d="M901.95792 10.186408l551.322469 1197.551623" stroke-width=".99961"/><path data-name="Path 295" d="M107.95792 10.186408l551.322469 1197.551623" stroke-width=".99961"/><path data-name="Path 299" d="M320.95792 10.186408l551.322469 1197.551623" stroke-width=".99961"/><path data-name="Path 303" d="M531.95792 10.186408l551.322469 1197.551623" stroke-width=".99961"/><path data-name="Path 307" d="M743.95792 10.186408l551.322469 1197.551623" stroke-width=".99961"/><path data-name="Path 311" d="M956.95792 10.186408l551.322469 1197.551623" stroke-width=".99961"/><path data-name="Path 313" d="M1064.65792 10.186408l551.322469 1197.551623" stroke-width=".99961"/><path data-name="Path 296" d="M161.95792 10.186408l551.322469 1197.551623" stroke-width=".99961"/><path data-name="Path 300" d="M374.95792 10.186408l551.322469 1197.551623" stroke-width=".99961"/><path data-name="Path 304" d="M585.95792 10.186408l551.322469 1197.551623" stroke-width=".99961"/><path data-name="Path 308" d="M797.95792 10.186408l551.322469 1197.551623" stroke-width=".99961"/><path data-name="Path 312" d="M1010.95792 10.186408l551.322469 1197.551623" stroke-width=".99961"/><path data-name="Path 314" d="M1118.65792 10.186408l551.322469 1197.551623" stroke-width=".99961"/><path data-name="Path 315" d="M1265.29972 18.925592L713.976252 1216.47718" stroke-width=".99961"/><path data-name="Path 319" d="M1475.59972 18.925592L924.276252 1216.47718" stroke-width=".99961"/><path data-name="Path 323" d="M1686.29972 18.925592L1134.976252 1216.47718" stroke-width=".99961"/><path data-name="Path 328" d="M1791.89972 18.925592L1240.576252 1216.47718" stroke-width=".99961"/><path data-name="Path 316" d="M1157.59972 18.925592L606.276252 1216.47718" stroke-width=".99961"/><path data-name="Path 320" d="M1367.89972 18.925592L816.576252 1216.47718" stroke-width=".99961"/><path data-name="Path 324" d="M1578.59972 18.925592L1027.276252 1216.47718" stroke-width=".99961"/><path data-name="Path 317" d="M1211.29972 18.925592L659.976252 1216.47718" stroke-width=".99961"/><path data-name="Path 321" d="M1421.59972 18.925592L870.276252 1216.47718" stroke-width=".99961"/><path data-name="Path 325" d="M1632.29972 18.925592L1080.976252 1216.47718" stroke-width=".99961"/><path data-name="Path 327" d="M1737.89972 18.925592L1186.576252 1216.47718" stroke-width=".99961"/><path data-name="Path 318" d="M1103.59972 18.925592L552.276252 1216.47718" stroke-width=".99961"/><path data-name="Path 322" d="M1313.89972 18.925592L762.576252 1216.47718" stroke-width=".99961"/><path data-name="Path 326" d="M1524.59972 18.925592L973.276252 1216.47718" stroke-width=".99961"/></g></svg>