<?xml version="1.0" standalone="no"?>
<!DOCTYPE svg PUBLIC "-//W3C//DTD SVG 20010904//EN"
 "http://www.w3.org/TR/2001/REC-SVG-20010904/DTD/svg10.dtd">
<svg version="1.0" xmlns="http://www.w3.org/2000/svg"
 width="624.000000pt" height="624.000000pt" viewBox="0 0 624.000000 624.000000"
 preserveAspectRatio="xMidYMid meet">
<metadata>
Created by potrace 1.14, written by Peter Selinger 2001-2017
</metadata>
<g transform="translate(0.000000,624.000000) scale(0.100000,-0.100000)"
fill="#000000" stroke="none">
<path d="M12 5798 c8 -13 34 -57 57 -98 23 -41 46 -82 52 -90 5 -8 15 -26 21
-40 7 -14 15 -27 18 -30 3 -3 11 -16 19 -30 8 -14 54 -94 103 -178 48 -83 88
-155 88 -157 0 -3 9 -18 19 -33 30 -43 321 -552 321 -562 0 -4 4 -10 8 -12 5
-1 22 -28 39 -58 16 -30 62 -110 101 -178 40 -68 72 -127 72 -132 0 -6 4 -10
9 -10 5 0 11 -6 13 -12 2 -11 108 -199 138 -248 37 -58 100 -173 100 -181 0
-5 4 -9 8 -9 4 0 13 -12 19 -27 7 -16 17 -35 22 -43 29 -46 89 -150 105 -180
25 -49 40 -76 52 -91 6 -8 25 -39 41 -69 28 -50 90 -158 181 -315 19 -33 46
-80 60 -105 13 -25 28 -49 32 -55 4 -5 20 -32 35 -60 16 -27 45 -79 65 -115
20 -36 48 -84 63 -107 15 -24 27 -44 27 -47 0 -2 36 -64 79 -139 43 -74 90
-154 104 -178 42 -76 99 -173 115 -199 9 -14 17 -27 17 -30 1 -5 26 -50 151
-263 35 -60 64 -111 64 -114 0 -2 13 -24 30 -48 16 -24 30 -47 30 -51 0 -3 20
-40 45 -81 25 -40 45 -78 45 -83 0 -5 6 -15 13 -22 7 -7 27 -38 44 -68 34 -62
47 -85 125 -220 30 -52 99 -171 152 -263 53 -93 107 -185 119 -205 12 -20 31
-53 41 -73 10 -19 25 -44 33 -55 16 -21 12 -25 59 56 56 95 299 517 326 565
16 28 33 57 38 65 5 8 32 56 60 105 28 50 55 97 60 105 28 48 275 478 284 495
6 11 13 22 16 25 3 3 43 70 89 150 103 182 92 162 143 250 24 41 47 82 51 90
5 8 13 24 20 35 7 11 39 67 72 125 33 58 63 107 67 108 4 2 8 8 8 14 0 6 20
44 45 85 25 40 45 78 45 83 0 6 4 10 8 10 4 0 13 12 19 28 7 15 24 47 39 72
27 46 41 70 101 175 19 33 38 67 44 75 10 16 126 217 166 288 13 23 53 93 89
154 35 61 64 112 64 115 0 2 16 29 35 59 19 30 35 56 35 59 0 3 17 33 38 67
21 35 41 70 45 78 4 8 17 32 30 52 12 21 35 61 51 90 15 29 34 60 42 69 8 8
14 18 14 22 0 3 47 87 105 187 58 99 105 182 105 185 0 3 5 11 10 18 9 10 142
237 238 407 14 25 33 59 43 75 10 17 30 53 44 80 15 28 33 57 41 66 8 8 14 18
14 22 0 4 22 44 49 89 27 46 58 99 69 118 78 138 124 217 132 230 6 8 17 29
25 45 9 17 24 45 35 63 l20 32 -3121 0 -3121 0 14 -22z m5533 -380 c2 -2 -5
-19 -17 -38 -12 -19 -22 -37 -23 -40 0 -3 -8 -16 -17 -30 -14 -22 -90 -153
-150 -260 -58 -102 -102 -178 -116 -200 -9 -14 -17 -27 -17 -30 0 -3 -8 -16
-16 -30 -32 -51 -79 -130 -79 -134 0 -3 -28 -51 -61 -108 -34 -57 -71 -119
-81 -138 -44 -77 -70 -123 -176 -305 -60 -104 -119 -206 -129 -225 -19 -34
-114 -197 -297 -514 -47 -82 -86 -153 -86 -157 0 -4 -3 -9 -8 -11 -7 -3 -43
-66 -66 -115 -6 -13 -14 -23 -18 -23 -5 0 -8 -4 -8 -9 0 -12 -123 -225 -132
-229 -5 -2 -8 -8 -8 -13 0 -5 -109 -197 -241 -427 -133 -229 -255 -442 -272
-472 -16 -30 -33 -59 -37 -65 -4 -5 -17 -26 -28 -45 -89 -158 -197 -346 -202
-350 -3 -3 -10 -14 -15 -25 -22 -46 -120 -215 -125 -215 -3 1 -50 80 -105 177
-55 97 -115 201 -134 232 -18 31 -44 75 -57 99 -57 102 -77 135 -159 277 -48
83 -97 168 -110 190 -12 22 -63 110 -112 195 -178 306 -273 472 -273 476 0 3
-5 10 -10 17 -9 10 -55 88 -164 282 -13 22 -37 64 -55 93 -17 29 -31 57 -31
62 0 6 -4 10 -10 10 -5 0 -10 4 -10 9 0 5 -38 76 -85 157 -47 81 -85 151 -85
156 0 4 -4 8 -9 8 -5 0 -11 8 -14 18 -3 9 -22 44 -41 77 -20 33 -47 80 -61
105 -14 25 -30 52 -35 60 -15 24 -205 353 -213 370 -4 8 -17 31 -28 50 -23 39
-161 276 -191 328 -37 66 -56 98 -87 150 -17 29 -31 57 -31 62 0 6 -4 10 -10
10 -5 0 -10 5 -10 11 0 6 -20 45 -45 86 -25 40 -45 76 -45 79 0 3 -8 18 -19
32 -10 15 -32 52 -49 82 -17 30 -55 98 -85 150 -30 52 -54 97 -52 100 4 6
4844 5 4850 -2z"/>
</g>
</svg>
