<?xml version="1.0" standalone="no"?>
<!DOCTYPE svg PUBLIC "-//W3C//DTD SVG 20010904//EN"
 "http://www.w3.org/TR/2001/REC-SVG-20010904/DTD/svg10.dtd">
<svg version="1.0" xmlns="http://www.w3.org/2000/svg"
 width="700.000000pt" height="700.000000pt" viewBox="0 0 700.000000 700.000000"
 preserveAspectRatio="xMidYMid meet">
<metadata>
Created by potrace 1.14, written by Peter Selinger 2001-2017
</metadata>
<g transform="translate(0.000000,700.000000) scale(0.100000,-0.100000)"
fill="#000000" stroke="none">
<path d="M562 6035 c6 -11 62 -108 123 -215 62 -107 122 -211 132 -230 28 -49
82 -142 92 -160 18 -29 533 -921 576 -995 34 -60 234 -405 351 -608 57 -98
104 -181 104 -184 0 -4 6 -14 13 -22 8 -9 30 -45 50 -81 l36 -66 -332 0 -332
0 0 -140 0 -139 412 0 c226 0 413 -2 416 -5 2 -3 66 -113 142 -245 76 -132
149 -257 162 -277 12 -21 23 -40 23 -42 0 -2 27 -50 60 -105 33 -56 60 -106
60 -111 0 -6 4 -10 9 -10 5 0 11 -6 13 -13 2 -10 144 -261 179 -317 12 -19
134 -231 167 -290 14 -25 32 -57 41 -72 9 -15 54 -93 101 -174 47 -81 97 -168
112 -193 15 -25 31 -52 34 -60 4 -7 49 -85 100 -173 l92 -160 25 38 c13 22 61
104 107 184 46 80 139 242 208 360 69 118 132 229 142 245 14 24 169 293 263
455 11 19 31 55 45 80 14 25 65 114 114 198 49 84 100 172 112 195 13 23 47
80 74 127 28 47 49 87 46 89 -2 2 -70 5 -151 5 -177 1 -156 15 -263 -174 -41
-72 -83 -146 -94 -163 -10 -18 -44 -77 -76 -132 -101 -177 -430 -747 -489
-847 -31 -54 -58 -98 -61 -98 -5 0 -49 72 -96 155 -23 42 -60 106 -152 265
-52 91 -138 239 -190 330 -52 91 -151 262 -220 380 -69 118 -136 235 -150 260
-14 25 -56 98 -93 162 -38 64 -69 120 -69 125 0 4 696 8 1548 8 l1547 0 3 134
c1 76 -1 137 -7 140 -5 3 -155 6 -334 5 l-326 0 11 20 c6 12 67 118 136 236
69 118 134 231 145 250 33 58 367 639 397 690 5 8 69 118 142 245 73 126 138
238 143 247 117 202 186 325 185 333 0 5 -61 10 -151 10 -122 0 -152 -2 -163
-15 -10 -12 -89 -145 -186 -315 -33 -57 -202 -350 -211 -365 -5 -8 -38 -67
-74 -130 -36 -63 -70 -122 -75 -130 -5 -8 -28 -49 -52 -90 -23 -41 -49 -87
-58 -101 -96 -166 -261 -452 -285 -494 -16 -29 -74 -129 -128 -222 l-98 -169
-1139 0 -1139 1 -252 435 c-138 239 -261 453 -274 475 -24 43 -259 450 -413
715 -52 91 -103 179 -112 195 -9 17 -74 128 -143 248 -70 121 -127 222 -127
226 0 4 1176 7 2613 6 1436 0 2619 3 2628 7 17 8 162 252 157 265 -2 4 -1327
8 -2945 8 -2938 0 -2941 0 -2931 -20z"/>
</g>
</svg>
